<svg aria-hidden="true" style="position: absolute; width: 0; height: 0; overflow: hidden;" version="1.1" xmlns="http://www.w3.org/2000/svg" xmlns:xlink="http://www.w3.org/1999/xlink">
<defs>
<symbol id="icon-search-btn" viewBox="0 0 29 18">
<path d="M14.614 16.875l-14.614-16.875h29.228l-14.614 16.875z"></path>
</symbol>
<symbol id="icon-search-icon" viewBox="0 0 18 18">
<path d="M2.264 2.264c1.46-1.46 3.4-2.264 5.465-2.264s4.005 0.804 5.465 2.264c1.46 1.46 2.264 3.4 2.264 5.465 0 1.887-0.672 3.671-1.903 5.079l4.292 4.292c0.206 0.206 0.206 0.54 0 0.747-0.103 0.103-0.238 0.155-0.373 0.155s-0.27-0.052-0.373-0.155l-4.292-4.292c-1.408 1.231-3.191 1.903-5.079 1.903-2.064 0-4.005-0.804-5.465-2.264s-2.264-3.4-2.264-5.465 0.804-4.005 2.264-5.465zM3.010 12.446c2.602 2.602 6.835 2.602 9.436 0s2.602-6.835 0-9.436c-1.301-1.301-3.009-1.951-4.718-1.951s-3.417 0.651-4.718 1.951c-2.601 2.602-2.601 6.835 0 9.436z"></path>
</symbol>
</defs>
</svg>
